<svg width="16" height="12" viewBox="0 0 16 12" fill="none" xmlns="http://www.w3.org/2000/svg">
<path d="M10.2558 0.696668L14.97 5.41083C15.1262 5.56711 15.214 5.77903 15.214 6C15.214 6.22097 15.1262 6.43289 14.97 6.58917L10.2558 11.3033C10.0987 11.4551 9.88816 11.5391 9.66967 11.5372C9.45117 11.5353 9.24216 11.4477 9.08765 11.2932C8.93314 11.1387 8.8455 10.9297 8.84361 10.7112C8.84171 10.4927 8.9257 10.2822 9.0775 10.125L12.3692 6.83333H1.33333C1.11232 6.83333 0.900358 6.74554 0.744078 6.58926C0.587797 6.43298 0.5 6.22101 0.5 6C0.5 5.77899 0.587797 5.56703 0.744078 5.41075C0.900358 5.25447 1.11232 5.16667 1.33333 5.16667H12.3692L9.0775 1.875C8.99791 1.79813 8.93442 1.70617 8.89075 1.6045C8.84707 1.50283 8.82409 1.39348 8.82312 1.28284C8.82216 1.17219 8.84325 1.06245 8.88515 0.960039C8.92705 0.857626 8.98893 0.764583 9.06717 0.686339C9.14541 0.608095 9.23846 0.546217 9.34087 0.504316C9.44329 0.462416 9.55302 0.441331 9.66367 0.442292C9.77432 0.443254 9.88367 0.466242 9.98534 0.509916C10.087 0.553591 10.179 0.617076 10.2558 0.696668Z" fill="black"/>
</svg>
