<svg width="140" height="132" viewBox="0 0 140 132" fill="none" xmlns="http://www.w3.org/2000/svg">
<mask id="path-1-inside-1_9488_10" fill="white">
<path fill-rule="evenodd" clip-rule="evenodd" d="M50.5696 1.18174C20.5351 22.9482 3.85052 48.2793 0.512019 77.1887C-4.6852 122.184 30.9734 144.207 49.042 124.421C67.1106 104.631 56.2814 79.5156 43.1986 72.6472C30.1158 65.7833 22.1146 68.1733 23.5106 58.996C24.9066 49.8231 43.5177 24.3839 59.8712 12.5375C60.4507 11.9815 60.8204 11.1969 60.9049 10.3438C60.9894 9.49067 60.7823 8.63334 60.3259 7.94661L56.2814 2.0099C54.5264 -0.564619 52.8432 -0.465601 50.5696 1.17723M129.649 1.18174C99.6141 22.9482 82.9256 48.2838 79.5911 77.1887C74.3938 122.184 110.052 144.207 128.121 124.421C146.19 104.631 135.36 79.5156 122.274 72.6472C109.191 65.7833 101.19 68.1733 102.586 58.996C103.982 49.8231 122.597 24.3839 138.95 12.5375C139.529 11.9808 139.898 11.1959 139.982 10.3429C140.066 9.48979 139.858 8.6328 139.401 7.94661L135.356 2.0099C133.601 -0.564619 131.918 -0.465601 129.649 1.17723"/>
</mask>
<path d="M0.512019 77.1887L1.50541 77.3034L1.50542 77.3034L0.512019 77.1887ZM49.042 124.421L49.7804 125.096L49.7805 125.096L49.042 124.421ZM43.1986 72.6472L43.6634 71.7618L43.6632 71.7617L43.1986 72.6472ZM23.5106 58.996L22.522 58.8455L22.522 58.8456L23.5106 58.996ZM59.8712 12.5375L60.4578 13.3474L60.5137 13.3069L60.5635 13.2591L59.8712 12.5375ZM60.3259 7.94661L61.1588 7.39304L61.1523 7.38358L60.3259 7.94661ZM56.2814 2.0099L57.1078 1.44688L57.1077 1.44664L56.2814 2.0099ZM79.5911 77.1887L80.5845 77.3034L80.5845 77.3033L79.5911 77.1887ZM128.121 124.421L128.859 125.096L128.86 125.096L128.121 124.421ZM122.274 72.6472L122.738 71.7618L122.738 71.7617L122.274 72.6472ZM102.586 58.996L101.597 58.8455L101.597 58.8456L102.586 58.996ZM138.95 12.5375L139.537 13.3474L139.593 13.3066L139.643 13.2583L138.95 12.5375ZM139.401 7.94661L140.233 7.39235L140.227 7.38358L139.401 7.94661ZM135.356 2.0099L136.183 1.44688L136.183 1.44664L135.356 2.0099ZM49.9828 0.372014C19.7877 22.2548 2.8976 47.814 -0.481379 77.0739L1.50542 77.3034C4.80344 48.7446 21.2825 23.6415 51.1564 1.99146L49.9828 0.372014ZM-0.481377 77.0739C-3.11175 99.8468 4.58625 116.961 15.417 125.87C20.8284 130.322 27.0367 132.731 33.1081 132.716C39.196 132.7 45.0778 130.245 49.7804 125.096L48.3035 123.747C43.9718 128.49 38.6206 130.702 33.1031 130.716C27.5692 130.73 21.7998 128.531 16.6876 124.326C6.47125 115.922 -1.06143 99.5262 1.50541 77.3034L-0.481377 77.0739ZM49.7805 125.096C59.0496 114.943 60.9268 103.38 58.7793 93.4765C56.6435 83.6265 50.5094 75.3559 43.6634 71.7618L42.7338 73.5326C48.9706 76.8069 54.7925 84.5281 56.8248 93.9004C58.8455 103.219 57.103 114.109 48.3035 123.747L49.7805 125.096ZM43.6632 71.7617C40.3327 70.0144 37.3289 68.858 34.7324 67.9636C32.0908 67.0537 30.003 66.4547 28.3018 65.7628C26.6205 65.0791 25.584 64.3998 24.9981 63.4928C24.4265 62.608 24.1685 61.3206 24.4992 59.1464L22.522 58.8456C22.1547 61.26 22.3733 63.1154 23.3181 64.5781C24.2487 66.0186 25.7684 66.8916 27.5483 67.6155C29.3083 68.3313 31.5865 68.9953 34.0811 69.8546C36.6206 70.7293 39.523 71.8481 42.734 73.5328L43.6632 71.7617ZM24.4992 59.1464C24.8188 57.0465 26.1626 53.8718 28.3503 50.0275C30.5198 46.2153 33.4613 41.8431 36.8762 37.3767C43.7141 28.4334 52.3878 19.1933 60.4578 13.3474L59.2845 11.7277C51.0011 17.7282 42.1924 27.1309 35.2874 36.1619C31.8309 40.6827 28.8358 45.1307 26.6121 49.0383C24.4065 52.914 22.9004 56.359 22.522 58.8455L24.4992 59.1464ZM60.5635 13.2591C61.3271 12.5264 61.7938 11.5152 61.9 10.4423L59.9098 10.2452C59.847 10.8785 59.5743 11.4365 59.1788 11.816L60.5635 13.2591ZM61.9 10.4423C62.0063 9.36952 61.7482 8.28004 61.1587 7.39308L59.493 8.50014C59.8164 8.98664 59.9725 9.61183 59.9098 10.2452L61.9 10.4423ZM61.1523 7.38358L57.1078 1.44688L55.4549 2.57293L59.4994 8.50964L61.1523 7.38358ZM57.1077 1.44664C56.1585 0.0543434 55.0719 -0.848797 53.7187 -0.983055C52.4143 -1.11246 51.1676 -0.488622 49.9839 0.366695L51.1553 1.98777C52.2452 1.20025 52.9768 0.953165 53.5212 1.00717C54.0167 1.05633 54.6492 1.39094 55.4551 2.57316L57.1077 1.44664ZM129.062 0.372014C98.8668 22.2548 81.9726 47.8185 78.5977 77.0741L80.5845 77.3033C83.8785 48.7491 100.361 23.6415 130.235 1.99146L129.062 0.372014ZM78.5977 77.0739C75.9673 99.8468 83.6653 116.961 94.4961 125.87C99.9074 130.322 106.116 132.731 112.187 132.716C118.275 132.7 124.157 130.245 128.859 125.096L127.383 123.747C123.051 128.49 117.7 130.702 112.182 130.716C106.648 130.73 100.879 128.531 95.7666 124.326C85.5503 115.922 78.0176 99.5262 80.5845 77.3034L78.5977 77.0739ZM128.86 125.096C138.129 114.943 140.006 103.38 137.858 93.4765C135.721 83.6264 129.586 75.3558 122.738 71.7618L121.809 73.5327C128.048 76.807 133.871 84.5282 135.903 93.9004C137.925 103.219 136.182 114.109 127.383 123.747L128.86 125.096ZM122.738 71.7617C119.408 70.0144 116.404 68.858 113.807 67.9636C111.166 67.0537 109.078 66.4547 107.377 65.7628C105.696 65.0791 104.659 64.3998 104.073 63.4928C103.502 62.608 103.244 61.3206 103.574 59.1464L101.597 58.8456C101.23 61.26 101.448 63.1154 102.393 64.5781C103.324 66.0186 104.843 66.8916 106.623 67.6155C108.383 68.3313 110.662 68.9953 113.156 69.8546C115.696 70.7293 118.598 71.8481 121.809 73.5328L122.738 71.7617ZM103.574 59.1464C103.894 57.0465 105.238 53.8719 107.426 50.0276C109.596 46.2154 112.538 41.8432 115.953 37.3768C122.792 28.4334 131.467 19.1933 139.537 13.3474L138.364 11.7277C130.08 17.7282 121.271 27.1308 114.365 36.1619C110.908 40.6827 107.912 45.1306 105.688 49.0383C103.482 52.9139 101.975 56.359 101.597 58.8455L103.574 59.1464ZM139.643 13.2583C140.406 12.5249 140.872 11.5134 140.977 10.4406L138.987 10.2452C138.924 10.8784 138.652 11.4368 138.257 11.8167L139.643 13.2583ZM140.977 10.4406C141.082 9.3678 140.823 8.2787 140.233 7.39238L138.569 8.50084C138.892 8.98689 139.049 9.61178 138.987 10.2452L140.977 10.4406ZM140.227 7.38358L136.183 1.44688L134.53 2.57293L138.574 8.50964L140.227 7.38358ZM136.183 1.44664C135.234 0.0544187 134.147 -0.848767 132.794 -0.98305C131.49 -1.11251 130.244 -0.488363 129.062 0.367184L130.235 1.98728C131.323 1.19999 132.053 0.953215 132.597 1.00717C133.092 1.0563 133.724 1.39087 134.53 2.57316L136.183 1.44664Z" fill="black" fill-opacity="0.1" mask="url(#path-1-inside-1_9488_10)"/>
</svg>
